<!-- Generated by IcoMoon.io -->
<svg version="1.1" xmlns="http://www.w3.org/2000/svg" width="32" height="32" viewBox="0 0 32 32">
<title>bag</title>
<path d="M16 2c2.981 0 5.397 2.238 5.397 5.001v0.999h-10.795v-0.999c0-2.763 2.416-5.001 5.397-5.001zM23.556 8v-0.999c0-3.867-3.383-7.001-7.556-7.001s-7.556 3.134-7.556 7.001v0.999h-7.556v20c0 2.21 1.932 4 4.318 4h21.588c2.384 0 4.318-1.79 4.318-4v-20h-7.557zM3.047 10h25.904v18c0 1.104-0.967 2-2.158 2h-21.586c-1.193 0-2.158-0.896-2.158-2v-18h-0.002z"></path>
</svg>
