<!-- Generated by IcoMoon.io -->
<svg version="1.1" xmlns="http://www.w3.org/2000/svg" width="32" height="32" viewBox="0 0 32 32">
<title>heart</title>
<path d="M15.486 7.29l-1.492-1.343c-3.133-3.283-9.101-2.089-11.338 1.939-1.044 1.791-1.194 4.625 0.596 8.057 1.791 3.283 5.52 7.311 12.084 11.786 6.714-4.327 10.294-8.355 12.084-11.786s1.641-6.266 0.596-8.057c-1.939-4.028-7.907-5.222-11.19-1.939l-1.341 1.343zM15.486 29.818c-29.69-18.649-9.101-33.27-0.448-25.511 0.15 0.15 0.298 0.15 0.298 0.298 0.15-0.15 0.15-0.15 0.298-0.298 8.951-7.759 29.391 6.863-0.148 25.511z"></path>
</svg>
