<!-- Generated by IcoMoon.io -->
<svg version="1.1" xmlns="http://www.w3.org/2000/svg" width="32" height="32" viewBox="0 0 32 32">
<title>person</title>
<path d="M2.59 31.847c-0.763 0-2.59-0.457-2.59-2.59 0-2.896 2.896-10.514 16-10.514s16 7.62 16 10.514c0 2.133-1.829 2.59-2.59 2.59h-26.82zM16 21.18c-6.247 0-9.6 1.98-11.429 3.504-1.371 1.372-1.828 2.896-1.98 3.81l-0.153 1.067h27.124l-0.153-1.067c-0.153-1.067-0.914-2.59-1.98-3.657-1.675-1.676-5.028-3.657-11.428-3.657zM16 15.847c-4.42 0-7.924-3.504-7.924-7.924s3.504-7.924 7.924-7.924c4.42 0 7.924 3.504 7.924 7.924s-3.504 7.924-7.924 7.924zM16 2.437c-3.047 0-5.486 2.437-5.486 5.486s2.439 5.486 5.486 5.486c3.047 0 5.486-2.437 5.486-5.486s-2.439-5.486-5.486-5.486z"></path>
</svg>
