<!-- Generated by IcoMoon.io -->
<svg version="1.1" xmlns="http://www.w3.org/2000/svg" width="32" height="32" viewBox="0 0 32 32">
<title>search</title>
<path d="M19.711 19.711c0.547-0.547 1.529-0.547 2.075 0l5.788 5.788c0.547 0.547 0.547 1.529 0 2.075-0.547 0.547-1.529 0.547-2.075 0l-5.788-5.788c-0.656-0.547-0.656-1.529 0-2.075z"></path>
<path d="M13.704 22.004c4.587 0 8.3-3.713 8.3-8.3s-3.713-8.3-8.3-8.3c-4.587 0-8.3 3.713-8.3 8.3s3.821 8.3 8.3 8.3zM23.534 13.704c0 5.352-4.368 9.72-9.72 9.72s-9.829-4.26-9.829-9.72c0-5.46 4.368-9.72 9.72-9.72s9.829 4.368 9.829 9.72z"></path>
</svg>
