<svg width="0" height="0" class="hidden">
  <symbol xmlns="http://www.w3.org/2000/svg" viewBox="0 0 60 60" id="ic-mute">
    <path d="M51.707 8.293a.999.999 0 0 0-1.414 0l-42 42a.999.999 0 1 0 1.414 1.414l42-42a.999.999 0 0 0 0-1.414zm1.134 2.268L42 21.402v27.491A3.11 3.11 0 0 1 38.893 52c-.547 0-1.09-.149-1.571-.432a.967.967 0 0 1-.174-.131L24.106 39.296 10.561 52.841C15.982 57.469 22.795 60 30 60c8.013 0 15.547-3.121 21.213-8.787S60 38.013 60 30c0-7.205-2.531-14.018-7.159-19.439zM15.104 39A3.108 3.108 0 0 1 12 35.896V23.104A3.108 3.108 0 0 1 15.104 20h8.324c.166 0 .329-.037.479-.109L37.148 7.563c.053-.05.112-.094.174-.131A3.102 3.102 0 0 1 38.893 7 3.11 3.11 0 0 1 42 10.106v4.479l7.433-7.432C44.013 2.529 37.203 0 30 0 21.987 0 14.453 3.121 8.787 8.787S0 21.987 0 30c0 7.202 2.528 14.013 7.153 19.432L17.586 39h-2.482z"/>
  </symbol>
  <symbol xmlns="http://www.w3.org/2000/svg" viewBox="0 0 60 60" id="ic-pause">
    <path d="M30 0C13.458 0 0 13.458 0 30s13.458 30 30 30 30-13.458 30-30S46.542 0 30 0zm-3 46h-8V14h8v32zm14 0h-8V14h8v32z"/>
  </symbol>
  <symbol xmlns="http://www.w3.org/2000/svg" viewBox="0 0 60 60" id="ic-play-button">
    <path d="M30 0C13.458 0 0 13.458 0 30s13.458 30 30 30 30-13.458 30-30S46.542 0 30 0zm15.563 30.826l-22 15a1.002 1.002 0 0 1-1.03.058A.999.999 0 0 1 22 45V15a.999.999 0 0 1 1.564-.826l22 15a1.001 1.001 0 0 1-.001 1.652z"/>
  </symbol>
  <symbol xmlns="http://www.w3.org/2000/svg" viewBox="0 0 60 60" id="ic-speaker">
    <path d="M30 0C13.458 0 0 13.458 0 30s13.458 30 30 30 30-13.458 30-30S46.542 0 30 0zm6 48.894A3.11 3.11 0 0 1 32.893 52c-.547 0-1.09-.149-1.571-.432a.967.967 0 0 1-.174-.131L17.906 39.109a1.104 1.104 0 0 0-.479-.109H9.104A3.108 3.108 0 0 1 6 35.896V23.104A3.108 3.108 0 0 1 9.104 20h8.324c.166 0 .329-.037.479-.109L31.148 7.563c.053-.05.112-.094.174-.131A3.102 3.102 0 0 1 32.893 7 3.11 3.11 0 0 1 36 10.106v38.788zM39 39a.999.999 0 0 1-.707-1.707c4.297-4.297 4.297-11.289 0-15.586a.999.999 0 1 1 1.414-1.414c5.077 5.077 5.077 13.337 0 18.414A.997.997 0 0 1 39 39zm4.248 3.749a.997.997 0 0 1-1.414 0 .999.999 0 0 1 0-1.414c6.238-6.238 6.238-16.39 0-22.628a.999.999 0 1 1 1.414-1.414c7.018 7.019 7.018 18.437 0 25.456z"/>
  </symbol>
  <symbol xmlns="http://www.w3.org/2000/svg" viewBox="0 0 60 60" id="ic-stop">
    <path d="M30 0C13.458 0 0 13.458 0 30s13.458 30 30 30 30-13.458 30-30S46.542 0 30 0zm14 44H16V16h28v28z"/>
  </symbol>
</svg>