<svg width="148" height="498" viewBox="0 0 148 498" fill="none" xmlns="http://www.w3.org/2000/svg">
<mask id="path-1-inside-1_419_912" fill="white">
<path fill-rule="evenodd" clip-rule="evenodd" d="M60.116 6.50832C56.5083 10.8831 52.8775 11.7511 51.2062 18.9152C49.7423 25.2575 51.6787 32.4215 52.013 38.9837L49.3735 40.7892C49.3735 43.671 51.1485 49.9439 53.3962 51.8419C54.8024 52.9993 53.0273 51.7725 55.1597 52.7447L56.1856 53.1844C57.3959 51.1244 58.0528 70.5448 57.6379 72.3387C56.4852 76.9681 51.2984 79.468 47.3448 81.748L27.2083 91.9674C20.0388 96.0529 13.9529 95.6941 9.46914 104.536C3.70595 115.855 7.49814 127.394 5.94207 139.361C4.45517 150.807 6.28786 167.427 3.55611 177.183C-2.5644 199.104 0.962673 210.319 1.46983 232.389C1.6312 239.333 1.46983 246 1.53899 252.874C1.60815 259.749 0.605372 265.744 1.34306 272.677C2.13838 280.072 7.91308 286.496 12.9962 290.604C15.133 292.096 17.6372 292.969 20.2348 293.127C20.7304 289.655 19.013 288.729 17.042 286.565C16.5233 286.01 12.8579 281.774 12.5467 281.183C10.9906 278.232 12.7888 267.295 14.4025 264.749C20.1657 266.797 14.6445 282.375 23.8887 280.234C23.6472 277.362 23.2625 274.504 22.736 271.67C22.0214 268.001 20.9609 266.959 20.8457 262.781C20.6382 254.321 17.2379 255.34 14.7482 248.558C11.6015 240.016 20.2693 224.253 22.5631 216.753C26.1363 205.076 24.0961 190.586 25.5715 178.283C26.0671 174.221 28.6721 140.437 28.8911 140.09C31.2885 141.479 31.035 148.319 31.1272 151.166C31.496 162.74 38.3773 169.973 37.2131 183.26C36.8558 187.357 35.8991 190.69 35.6917 194.833C35.4842 198.976 35.9683 203.93 35.3459 207.819C34.7235 211.707 33.2365 215.422 32.8792 218.605C32.4412 222.587 33.0752 226.707 32.5219 230.873C31.3693 239.287 28.6606 244.206 28.0612 252.863C27.4964 261.08 27.9575 269.621 27.335 277.989C26.2516 292.34 28.0843 311.957 30.9659 325.441C32.8562 334.213 32.2799 341.701 32.1185 350.694C31.911 363.055 28.5684 355.011 30.9659 373.841C31.8649 380.866 28.4761 403.296 32.2798 423.226C35.3228 439.22 38.1698 452.889 36.8097 470.932C36.0259 481.244 34.3891 482.505 26.5858 486.475C20.0158 489.785 9.12332 488.79 10.5872 495.931C28.9141 498.604 38.3657 495.398 43.9445 495.595C47.8289 495.722 49.7077 496.752 54.5719 496.069C56.0011 489.993 53.2002 488.743 51.9093 484.126C49.9152 477.054 53.2924 481.695 51.5865 471.395C49.0622 456.083 51.9208 429.174 55.5747 414.453C62.8363 385.23 51.2407 379.998 57.2805 359.988C59.8855 351.342 61.822 344.259 62.502 334.202C64.5652 304.111 72.8757 309.087 73.1408 282.537L76.5988 282.977C77.1174 293.162 76.4605 302.039 80.5062 310.823C82.0738 314.295 84.3214 317.142 85.7622 321.367C89.808 333.322 88.8283 349.074 92.5513 360.775C96.574 373.39 92.6665 376.503 91.3064 387.753C89.3354 404.048 98.0263 419.997 99.1559 442.727C99.4902 449.359 99.421 466.673 98.2223 472.494C96.8737 478.998 100.182 478.512 97.8189 485.225C97.0696 487.355 95.917 488.512 95.3407 490.769C92.9432 500.028 102.095 495.236 106.521 495.398C109.668 495.514 112.861 496.764 117.079 496.833C119.143 496.833 137.896 497.134 139.418 495.051C142.61 489.392 127.891 489.137 123.281 486.544C115.212 482.054 113.933 481.383 113.183 470.284C112.112 454.439 115.212 436.963 117.506 421.675C118.739 413.481 119.166 406.039 119.926 397.706C120.814 387.776 119.05 382.406 118.555 373.702C118.278 368.737 120.261 366.862 120.583 362.569C120.906 358.275 119.339 354.884 118.532 351.227C117.126 344.861 124.145 305.384 121.713 278.637C120.941 270.223 120.56 262.874 119.408 254.599C118.405 247.516 116.63 238.546 116.664 231.741C116.734 214.682 114.359 219.23 112.964 208.883C112.307 204.08 113.806 200.18 111.674 185.158C109.968 173.167 113.391 161.05 114.786 149.395C115.166 146.213 114.152 140.704 116.549 138.69C117.01 141.178 116.895 146.34 116.987 149.106C117.287 158.307 120.145 167.323 121.31 176.697C122.969 189.938 121.413 202.159 125.436 214.809C128.467 224.334 139.037 236.301 134.115 247.423C132.859 250.247 130.969 251.393 129.793 253.65C128.398 256.312 128.433 259.437 128.225 262.724C127.845 269.066 121.678 275.64 127.073 277.133C129.874 275.454 131.084 269.61 132.248 266.647C133.205 264.205 132.421 264.934 134.323 263.95C137.124 266.751 137.619 275.142 135.867 279.505C133.816 284.609 129.251 286.276 128.041 289.655C129.031 290.573 130.337 291.068 131.684 291.035C133.03 291.003 134.312 290.446 135.257 289.482C146.495 279.494 144.478 283.035 145.745 266.045C146.898 251.694 146.23 237.239 147.221 222.621C148.12 209.37 148.788 193.768 145.988 181.084C142.391 164.777 140.075 172.855 138.668 142.509C136.236 138.019 137.85 117.904 135.487 109.64C130.877 93.3331 122.808 94.3053 116.757 91.4119C114.532 90.3471 113.022 89.0046 110.994 87.9398C94.3609 78.8662 87.8139 82.5813 90.5111 62.8831C92.8164 46.5412 94.1304 53.8904 96.6085 51.3095C97.473 48.9948 99.421 43.6247 98.568 41.0091C97.4154 37.6412 96.7008 41.7498 97.012 36.5417C97.5537 27.2828 98.1646 16.612 94.1419 9.04293C91.9404 4.84173 84.9208 -0.320076 78.3739 0.0155573C74.5125 0.212308 71.2966 3.99686 60.116 6.50832Z"/>
</mask>
<path fill-rule="evenodd" clip-rule="evenodd" d="M60.116 6.50832C56.5083 10.8831 52.8775 11.7511 51.2062 18.9152C49.7423 25.2575 51.6787 32.4215 52.013 38.9837L49.3735 40.7892C49.3735 43.671 51.1485 49.9439 53.3962 51.8419C54.8024 52.9993 53.0273 51.7725 55.1597 52.7447L56.1856 53.1844C57.3959 51.1244 58.0528 70.5448 57.6379 72.3387C56.4852 76.9681 51.2984 79.468 47.3448 81.748L27.2083 91.9674C20.0388 96.0529 13.9529 95.6941 9.46914 104.536C3.70595 115.855 7.49814 127.394 5.94207 139.361C4.45517 150.807 6.28786 167.427 3.55611 177.183C-2.5644 199.104 0.962673 210.319 1.46983 232.389C1.6312 239.333 1.46983 246 1.53899 252.874C1.60815 259.749 0.605372 265.744 1.34306 272.677C2.13838 280.072 7.91308 286.496 12.9962 290.604C15.133 292.096 17.6372 292.969 20.2348 293.127C20.7304 289.655 19.013 288.729 17.042 286.565C16.5233 286.01 12.8579 281.774 12.5467 281.183C10.9906 278.232 12.7888 267.295 14.4025 264.749C20.1657 266.797 14.6445 282.375 23.8887 280.234C23.6472 277.362 23.2625 274.504 22.736 271.67C22.0214 268.001 20.9609 266.959 20.8457 262.781C20.6382 254.321 17.2379 255.34 14.7482 248.558C11.6015 240.016 20.2693 224.253 22.5631 216.753C26.1363 205.076 24.0961 190.586 25.5715 178.283C26.0671 174.221 28.6721 140.437 28.8911 140.09C31.2885 141.479 31.035 148.319 31.1272 151.166C31.496 162.74 38.3773 169.973 37.2131 183.26C36.8558 187.357 35.8991 190.69 35.6917 194.833C35.4842 198.976 35.9683 203.93 35.3459 207.819C34.7235 211.707 33.2365 215.422 32.8792 218.605C32.4412 222.587 33.0752 226.707 32.5219 230.873C31.3693 239.287 28.6606 244.206 28.0612 252.863C27.4964 261.08 27.9575 269.621 27.335 277.989C26.2516 292.34 28.0843 311.957 30.9659 325.441C32.8562 334.213 32.2799 341.701 32.1185 350.694C31.911 363.055 28.5684 355.011 30.9659 373.841C31.8649 380.866 28.4761 403.296 32.2798 423.226C35.3228 439.22 38.1698 452.889 36.8097 470.932C36.0259 481.244 34.3891 482.505 26.5858 486.475C20.0158 489.785 9.12332 488.79 10.5872 495.931C28.9141 498.604 38.3657 495.398 43.9445 495.595C47.8289 495.722 49.7077 496.752 54.5719 496.069C56.0011 489.993 53.2002 488.743 51.9093 484.126C49.9152 477.054 53.2924 481.695 51.5865 471.395C49.0622 456.083 51.9208 429.174 55.5747 414.453C62.8363 385.23 51.2407 379.998 57.2805 359.988C59.8855 351.342 61.822 344.259 62.502 334.202C64.5652 304.111 72.8757 309.087 73.1408 282.537L76.5988 282.977C77.1174 293.162 76.4605 302.039 80.5062 310.823C82.0738 314.295 84.3214 317.142 85.7622 321.367C89.808 333.322 88.8283 349.074 92.5513 360.775C96.574 373.39 92.6665 376.503 91.3064 387.753C89.3354 404.048 98.0263 419.997 99.1559 442.727C99.4902 449.359 99.421 466.673 98.2223 472.494C96.8737 478.998 100.182 478.512 97.8189 485.225C97.0696 487.355 95.917 488.512 95.3407 490.769C92.9432 500.028 102.095 495.236 106.521 495.398C109.668 495.514 112.861 496.764 117.079 496.833C119.143 496.833 137.896 497.134 139.418 495.051C142.61 489.392 127.891 489.137 123.281 486.544C115.212 482.054 113.933 481.383 113.183 470.284C112.112 454.439 115.212 436.963 117.506 421.675C118.739 413.481 119.166 406.039 119.926 397.706C120.814 387.776 119.05 382.406 118.555 373.702C118.278 368.737 120.261 366.862 120.583 362.569C120.906 358.275 119.339 354.884 118.532 351.227C117.126 344.861 124.145 305.384 121.713 278.637C120.941 270.223 120.56 262.874 119.408 254.599C118.405 247.516 116.63 238.546 116.664 231.741C116.734 214.682 114.359 219.23 112.964 208.883C112.307 204.08 113.806 200.18 111.674 185.158C109.968 173.167 113.391 161.05 114.786 149.395C115.166 146.213 114.152 140.704 116.549 138.69C117.01 141.178 116.895 146.34 116.987 149.106C117.287 158.307 120.145 167.323 121.31 176.697C122.969 189.938 121.413 202.159 125.436 214.809C128.467 224.334 139.037 236.301 134.115 247.423C132.859 250.247 130.969 251.393 129.793 253.65C128.398 256.312 128.433 259.437 128.225 262.724C127.845 269.066 121.678 275.64 127.073 277.133C129.874 275.454 131.084 269.61 132.248 266.647C133.205 264.205 132.421 264.934 134.323 263.95C137.124 266.751 137.619 275.142 135.867 279.505C133.816 284.609 129.251 286.276 128.041 289.655C129.031 290.573 130.337 291.068 131.684 291.035C133.03 291.003 134.312 290.446 135.257 289.482C146.495 279.494 144.478 283.035 145.745 266.045C146.898 251.694 146.23 237.239 147.221 222.621C148.12 209.37 148.788 193.768 145.988 181.084C142.391 164.777 140.075 172.855 138.668 142.509C136.236 138.019 137.85 117.904 135.487 109.64C130.877 93.3331 122.808 94.3053 116.757 91.4119C114.532 90.3471 113.022 89.0046 110.994 87.9398C94.3609 78.8662 87.8139 82.5813 90.5111 62.8831C92.8164 46.5412 94.1304 53.8904 96.6085 51.3095C97.473 48.9948 99.421 43.6247 98.568 41.0091C97.4154 37.6412 96.7008 41.7498 97.012 36.5417C97.5537 27.2828 98.1646 16.612 94.1419 9.04293C91.9404 4.84173 84.9208 -0.320076 78.3739 0.0155573C74.5125 0.212308 71.2966 3.99686 60.116 6.50832Z" stroke="#A6A6A6" stroke-width="1.68142" mask="url(#path-1-inside-1_419_912)"/>
<path fill-rule="evenodd" clip-rule="evenodd" d="M121 193.533C121 196.764 115.755 199.555 107.254 201.467C86.2653 205.405 64.7347 205.405 43.7461 201.467C35.2454 199.555 30 196.764 30 193.533H31.7139C31.7139 195.849 36.4532 198.061 44.1142 199.787C64.861 203.663 86.139 203.663 106.886 199.787C114.547 198.061 119.286 195.849 119.286 193.533H121Z" fill="black"/>
<path fill-rule="evenodd" clip-rule="evenodd" d="M112.062 186.896C117.687 188.691 121 190.973 121 193.533H119.286C119.286 191.842 116.721 190.185 112.292 188.749C112.223 188.147 112.154 187.533 112.062 186.896V186.896ZM36.5452 189.525C33.4624 190.765 31.7139 192.131 31.7139 193.533H30C30 191.309 32.5076 189.282 36.9018 187.626C36.7522 188.263 36.6487 188.888 36.5452 189.525V189.525Z" fill="black"/>
<path fill-rule="evenodd" clip-rule="evenodd" d="M126 245.943C126 249.186 120.235 251.977 110.768 253.876C87.4193 257.814 63.5807 257.814 40.2324 253.876C30.8231 251.977 25 249.243 25 245.943H26.7181C26.7181 248.259 32.0108 250.46 40.5553 252.185C63.6829 256.077 87.294 256.077 110.422 252.185C118.978 250.46 124.259 248.247 124.259 245.943H126Z" fill="black"/>
<path fill-rule="evenodd" clip-rule="evenodd" d="M117.456 239.711C122.852 241.425 126 243.568 126 245.942H124.282C124.282 244.402 121.872 242.885 117.686 241.53C117.605 240.927 117.525 240.371 117.456 239.711V239.711ZM29.9352 242.838C27.8597 243.834 26.7181 244.877 26.7181 245.942H25C25 244.066 26.9718 242.329 30.4657 240.835C30.2927 241.506 30.1082 242.167 29.9352 242.896V242.838Z" fill="black"/>
<path d="M80 497H70" stroke="black" stroke-width="1.5"/>
<path d="M80 282H70" stroke="black" stroke-width="1.5"/>
<path d="M75 282V497" stroke="black" stroke-width="1.5"/>
</svg>
