<?xml version="1.0" encoding="utf-8"?>
<!-- Generator: Adobe Illustrator 17.1.0, SVG Export Plug-In . SVG Version: 6.00 Build 0)  -->
<!DOCTYPE svg PUBLIC "-//W3C//DTD SVG 1.1//EN" "http://www.w3.org/Graphics/SVG/1.1/DTD/svg11.dtd">
<svg version="1.1" xmlns="http://www.w3.org/2000/svg" xmlns:xlink="http://www.w3.org/1999/xlink" x="0px" y="0px"
	 viewBox="0 0 165 23.841" enable-background="new 0 0 165 23.841" xml:space="preserve">
<g id="Layer_1">
	<g>
		<polygon fill="#fff" points="18.87,13.748 21.974,4.755 17.959,4.755 12.413,20.768 17.029,20.768 23.053,11.214 19.763,20.768 23.797,20.768 
			29.292,4.755 24.651,4.755 		"/>
		<polygon fill="#fff" points="29.485,8.298 32.567,8.298 28.302,20.768 32.47,20.768 36.72,8.298 39.846,8.298 41.051,4.755 30.7,4.755 		"/>
		<path fill="#fff" fill-rule="evenodd" clip-rule="evenodd" d="M43.14,13.294l-0.009-0.03l0.044-0.016L43.14,13.294z M43.36,14.284
			c6.139-0.3,6.277-3.384,6.277-3.384h-0.171h0h-4.961l0.926-2.736h5.292l1.149-3.409h-9.437l-5.44,16.014h9.681l1.149-3.409h-5.508
			L43.36,14.284z"/>
		<path fill="#fff" fill-rule="evenodd" clip-rule="evenodd" d="M57.403,11.191c-0.381,0.314-0.832,0.471-1.353,0.471h-0.783l1.309-3.903h0.782
			c1.072,0,1.39,0.65,0.954,1.951C58.087,10.384,57.784,10.877,57.403,11.191z M62.675,6.179c-0.232-0.441-0.596-0.789-1.091-1.043
			c-0.495-0.254-1.137-0.381-1.925-0.381h-6.224l-5.39,16.014h4.168l2.046-6.1h1.455c1.715,0,3.153-0.411,4.315-1.234
			c1.161-0.822,2.021-2.071,2.58-3.746c0.23-0.688,0.356-1.335,0.379-1.94C63.011,7.143,62.907,6.62,62.675,6.179z"/>
		<path fill="#fff" fill-rule="evenodd" clip-rule="evenodd" d="M68.182,16.227c-0.203,0.501-0.399,0.901-0.588,1.2
			c-0.189,0.299-0.386,0.513-0.593,0.639c-0.207,0.127-0.436,0.19-0.69,0.19c-0.313,0-0.536-0.082-0.668-0.247
			c-0.133-0.164-0.177-0.456-0.135-0.875c0.041-0.418,0.166-0.983,0.372-1.693c0.206-0.71,0.488-1.604,0.845-2.681
			c0.358-1.076,0.669-1.97,0.935-2.68c0.266-0.71,0.516-1.274,0.752-1.693c0.235-0.419,0.473-0.71,0.714-0.875
			c0.241-0.164,0.518-0.247,0.83-0.247c0.402,0,0.637,0.165,0.707,0.494c0.07,0.329-0.047,0.95-0.349,1.862l-0.297,0.897h4.022
			l0.333-1.009c0.256-0.777,0.394-1.477,0.413-2.097c0.019-0.62-0.103-1.151-0.367-1.592c-0.264-0.441-0.682-0.781-1.258-1.021
			c-0.575-0.239-1.331-0.358-2.268-0.358c-1.07,0-2.019,0.146-2.844,0.437c-0.826,0.292-1.571,0.766-2.236,1.424
			c-0.666,0.658-1.269,1.517-1.808,2.579c-0.54,1.062-1.064,2.355-1.572,3.88c-0.504,1.51-0.851,2.789-1.044,3.835
			c-0.192,1.047-0.189,1.899,0.01,2.556c0.199,0.658,0.624,1.133,1.274,1.424c0.65,0.292,1.558,0.437,2.723,0.437
			c0.672,0,1.351-0.075,2.035-0.224c0.684-0.149,1.34-0.426,1.966-0.83c0.626-0.404,1.206-0.961,1.74-1.671
			c0.532-0.71,0.987-1.633,1.362-2.77l0.393-1.189h-4.026C68.614,15.094,68.386,15.726,68.182,16.227z"/>
		<polygon fill="#fff" fill-rule="evenodd" clip-rule="evenodd" points="89.083,4.755 84.666,4.755 79.523,10.9 81.543,4.755 77.393,4.755 
			72.111,20.768 76.279,20.768 77.672,16.529 78.988,15.184 79.596,20.768 84.346,20.768 82.774,11.752 		"/>
		<polygon fill="#fff" fill-rule="evenodd" clip-rule="evenodd" points="91.493,13.748 94.418,4.755 90.402,4.755 85.176,20.768 89.793,20.768 
			95.625,11.214 92.527,20.768 96.56,20.768 101.735,4.755 97.095,4.755 		"/>
		<polygon fill="#fff" fill-rule="evenodd" clip-rule="evenodd" points="104.328,13.748 107.219,4.755 103.226,4.755 98.06,20.768 
			102.676,20.768 108.473,11.214 105.41,20.768 109.421,20.768 114.537,4.755 109.897,4.755 		"/>
		<path fill="#fff" fill-rule="evenodd" clip-rule="evenodd" d="M109.297,3.633c1.16,0,2.141-0.325,2.944-0.976
			c0.803-0.65,1.413-1.536,1.831-2.658h-1.938c-0.469,1.047-3.545,1.047-3.342,0h-1.938c-0.302,1.121-0.264,2.007,0.114,2.658
			C107.346,3.308,108.122,3.633,109.297,3.633z"/>
		<path fill="#fff" fill-rule="evenodd" clip-rule="evenodd" d="M139.432,4.755h-4.149l-3.952,12.605h-2.351l3.961-12.605h-4.149l-3.976,12.605
			h-2.351l3.984-12.605h-4.149l-5.08,16.014h14.786l-0.951,3.039c0,0,0.01,0.002,0.025,0.004l-0.009,0.03l0.027-0.027
			c0.411,0.049,3.724,0.226,5.808-6.454h-1.411L139.432,4.755z"/>
		<polygon fill="#fff" fill-rule="evenodd" clip-rule="evenodd" points="143.13,13.748 145.923,4.755 141.908,4.755 136.916,20.768 
			141.532,20.768 147.225,11.214 144.266,20.768 148.3,20.768 153.241,4.755 148.6,4.755 		"/>
		<polygon fill="#fff" fill-rule="evenodd" clip-rule="evenodd" points="154.649,4.755 153.557,8.298 156.638,8.298 152.805,20.768 
			156.973,20.768 160.792,8.298 163.918,8.298 165,4.755 		"/>
		<path fill="#fff" fill-rule="evenodd" clip-rule="evenodd" d="M5.604,4.755H3.658c0,0-1.166,1.817,0.966,2.797L0,20.768h4.168L8.564,8.164
			h2.545L6.723,20.768h4.168l5.555-16.014H8.351H5.604z"/>
	</g>
</g>
<g id="Guide">
</g>
</svg>
